<svg width="26" height="30" viewBox="0 0 26 30" fill="none" xmlns="http://www.w3.org/2000/svg">
<path d="M8.23537 9.95745V10.0199H8.29787H24.0638C24.5608 10.0199 25.0373 10.2174 25.3887 10.5687C25.7401 10.9201 25.9375 11.3967 25.9375 11.8936V27.383C25.9375 27.8799 25.7401 28.3565 25.3887 28.7079C25.0373 29.0592 24.5608 29.2566 24.0638 29.2566H1.93617C1.43924 29.2566 0.962667 29.0592 0.611285 28.7079C0.259904 28.3565 0.0625 27.8799 0.0625 27.383V11.8936C0.0625 11.3967 0.259904 10.9201 0.611285 10.5687C0.962667 10.2174 1.43924 10.0199 1.93617 10.0199H6.6383H6.7008V9.95745V6.36178C6.70297 4.69178 7.36734 3.09079 8.54822 1.90992C9.72908 0.729054 11.33 0.0646846 13 0.0625C16.0496 0.062519 18.6908 2.18314 19.2838 5.10268C19.3203 5.30047 19.2777 5.50472 19.1652 5.67144C19.0525 5.83831 18.8788 5.95421 18.6814 5.99415C18.4841 6.03409 18.279 5.99486 18.1103 5.88493C17.9418 5.7751 17.8231 5.6035 17.7799 5.40707C17.342 3.2331 15.2824 1.59707 13 1.59707C11.7363 1.59707 10.5244 2.09906 9.6309 2.9926C8.73736 3.88614 8.23537 5.09804 8.23537 6.3617V9.95745ZM12.2327 21.4763V21.4269L12.1847 21.4155C11.3432 21.2147 10.6045 20.7121 10.1089 20.003C9.61319 19.2938 9.39493 18.4275 9.49545 17.5682C9.59598 16.7089 10.0083 15.9163 10.6543 15.3407C11.3002 14.7652 12.1349 14.4466 13 14.4455C13.8651 14.4466 14.6998 14.7652 15.3457 15.3407C15.9917 15.9163 16.404 16.7089 16.5045 17.5682C16.6051 18.4275 16.3868 19.2938 15.8911 20.003C15.3955 20.7121 14.6568 21.2147 13.8153 21.4155L13.7673 21.4269V21.4763V24.0638C13.7673 24.2673 13.6864 24.4625 13.5426 24.6064C13.3987 24.7503 13.2035 24.8311 13 24.8311C12.7965 24.8311 12.6013 24.7503 12.4574 24.6064C12.3136 24.4625 12.2327 24.2673 12.2327 24.0638V21.4763ZM24.3036 27.6228C24.3672 27.5592 24.4029 27.4729 24.4029 27.383V11.8936C24.4029 11.8037 24.3672 11.7174 24.3036 11.6538C24.24 11.5902 24.1538 11.5545 24.0638 11.5545H1.93617C1.84624 11.5545 1.75999 11.5902 1.69639 11.6538C1.6328 11.7174 1.59707 11.8037 1.59707 11.8936V27.383C1.59707 27.4729 1.6328 27.5592 1.69639 27.6228C1.75999 27.6863 1.84624 27.7221 1.93617 27.7221H24.0638C24.1538 27.7221 24.24 27.6863 24.3036 27.6228ZM11.8896 19.6406C12.2183 19.8602 12.6047 19.9774 13 19.9774C13.5301 19.9774 14.0385 19.7668 14.4133 19.392C14.7881 19.0172 14.9987 18.5088 14.9987 17.9787C14.9987 17.5834 14.8815 17.197 14.6618 16.8683C14.4422 16.5396 14.1301 16.2835 13.7649 16.1322C13.3996 15.9809 12.9978 15.9413 12.6101 16.0185C12.2224 16.0956 11.8662 16.2859 11.5867 16.5655C11.3072 16.845 11.1169 17.2011 11.0397 17.5888C10.9626 17.9765 11.0022 18.3784 11.1535 18.7436C11.3047 19.1088 11.5609 19.4209 11.8896 19.6406Z" fill="white" stroke="white" stroke-width="0.125"/>
</svg>
