<svg width="30" height="30" viewBox="0 0 30 30" fill="none" xmlns="http://www.w3.org/2000/svg">
<path d="M28.8074 17.4487L26.8274 16.7952L26.8743 16.844L15.9215 20.819L5.43646 9.73492L2.86302 8.88555C1.56364 9.80523 1.41833 12.4237 2.29114 13.3349L15.2333 26.638L28.9227 21.7368C27.6758 21.0552 26.6643 19.1155 28.8074 17.4496V17.4487ZM14.5068 21.0384L3.72177 9.85586H4.04427L14.7815 20.818L14.5058 21.0384H14.5068ZM15.3308 26.2377C15.3308 26.2377 13.8383 24.494 15.7724 22.1746L27.4921 17.9305C27.4921 17.9305 26.144 20.2452 27.7218 21.6121L15.3308 26.2387V26.2377ZM5.43646 9.73492L5.07833 9.35617L16.004 5.4768L26.8274 16.7952L28.8065 17.4487C28.7971 17.4562 28.7877 17.4637 28.7783 17.4712L29.009 17.3887L16.2374 4.14648L2.91364 8.90148L5.43552 9.73398L5.43646 9.73492Z" fill="white"/>
</svg>
