<svg width="30" height="30" viewBox="0 0 30 30" fill="none" xmlns="http://www.w3.org/2000/svg">
<g clip-path="url(#clip0_748_1149)">
<path d="M11.2538 15.018L4.4724 13.0802C4.22537 13.0118 3.96428 13.1529 3.89303 13.4027C3.82224 13.6512 3.96615 13.9108 4.21552 13.9821L10.9969 15.9199C11.0396 15.9316 11.0827 15.9377 11.1254 15.9377C11.3293 15.9377 11.5168 15.8037 11.5758 15.5974C11.6471 15.349 11.5027 15.0893 11.2538 15.018Z" fill="white"/>
<path d="M11.2538 18.2988L4.4724 16.3615C4.22537 16.293 3.96428 16.4341 3.89303 16.684C3.82224 16.9329 3.96615 17.1921 4.21552 17.2633L10.9969 19.2007C11.0396 19.2124 11.0827 19.2185 11.1254 19.2185C11.3293 19.2185 11.5168 19.0844 11.5758 18.8782C11.6471 18.6293 11.5027 18.3701 11.2538 18.2988Z" fill="white"/>
<path d="M11.2538 11.7368L4.4724 9.79897C4.22537 9.73053 3.96428 9.87163 3.89303 10.1215C3.82224 10.3699 3.96615 10.6296 4.21552 10.7008L10.9969 12.6387C11.0396 12.6504 11.0827 12.6565 11.1254 12.6565C11.3293 12.6565 11.5168 12.5224 11.5758 12.3162C11.6471 12.0677 11.5027 11.808 11.2538 11.7368Z" fill="white"/>
<path d="M11.2538 8.45553L4.4724 6.51772C4.22537 6.44928 3.96428 6.59038 3.89303 6.84022C3.82224 7.08866 3.96615 7.34835 4.21552 7.4196L10.9969 9.35741C11.0396 9.36913 11.0827 9.37522 11.1254 9.37522C11.3293 9.37522 11.5168 9.24116 11.5758 9.03491C11.6471 8.78647 11.5027 8.52678 11.2538 8.45553Z" fill="white"/>
<path d="M18.7326 15.9198C18.7757 15.9198 18.8188 15.9137 18.8615 15.902L25.6429 13.9642C25.8918 13.8929 26.0362 13.6332 25.9654 13.3848C25.8942 13.1354 25.6335 12.9948 25.386 13.0623L18.6042 15.0001C18.3553 15.0713 18.2109 15.331 18.2817 15.5795C18.3412 15.7857 18.5287 15.9198 18.7326 15.9198Z" fill="white"/>
<path d="M25.5272 16.3616L18.7458 18.2989C18.4969 18.3702 18.3525 18.6294 18.4233 18.8783C18.4828 19.0846 18.6703 19.2186 18.8742 19.2186C18.9173 19.2186 18.9605 19.2125 19.0031 19.2008L25.7845 17.2635C26.0334 17.1922 26.1778 16.933 26.107 16.6841C26.0353 16.4347 25.7747 16.2941 25.5272 16.3616Z" fill="white"/>
<path d="M25.5272 9.79894L18.7458 11.7367C18.4969 11.808 18.3525 12.0677 18.4233 12.3161C18.4828 12.5224 18.6703 12.6564 18.8742 12.6564C18.9173 12.6564 18.9605 12.6503 19.0031 12.6386L25.7845 10.7008C26.0334 10.6296 26.1778 10.3699 26.107 10.1214C26.0353 9.87206 25.7747 9.7305 25.5272 9.79894Z" fill="white"/>
<path d="M25.5272 6.51736L18.7458 8.45517C18.4969 8.52642 18.3525 8.78611 18.4233 9.03454C18.4828 9.2408 18.6703 9.37486 18.8742 9.37486C18.9173 9.37486 18.9605 9.36876 19.0031 9.35704L25.7845 7.41923C26.0334 7.34798 26.1778 7.0883 26.107 6.83986C26.0353 6.59048 25.7747 6.44986 25.5272 6.51736Z" fill="white"/>
<path d="M29.6339 0.194082C29.468 0.0670508 29.2664 0.000488281 29.0616 0.000488281C28.9809 0.000488281 28.8998 0.0108008 28.8206 0.0314258L15 3.71721L1.17938 0.0314258C1.09969 0.010332 1.01859 0.000488281 0.937969 0.000488281C0.733125 0.000488281 0.532031 0.0670508 0.366094 0.194082C0.135469 0.371738 0 0.646426 0 0.937519V24.3746C0 24.7992 0.285469 25.171 0.695625 25.2806L12.8236 28.5146C13.1667 29.3836 14.0095 30 15 30C15.9905 30 16.8333 29.3836 17.1764 28.5146L29.3044 25.2806C29.7145 25.171 30 24.7992 30 24.3746V0.937519C30 0.646426 29.8645 0.371738 29.6339 0.194082ZM15 25.3125C15.0811 25.3125 15.1627 25.3022 15.2419 25.2811L29.0625 21.5953V22.5113L15 26.2336L0.9375 22.5113V21.5953L14.7581 25.2806C14.8373 25.3022 14.9189 25.3125 15 25.3125ZM0.936563 0.937988C0.936563 0.937988 0.937031 0.937988 0.937969 0.937988L14.5312 4.56236V24.2499L0.9375 20.625L0.936563 0.937988ZM16.3964 27.7524C16.3594 28.2881 16.0284 28.7419 15.5583 28.9458L15.2414 29.0306C15.1622 29.0517 15.0806 29.0621 14.9995 29.0621C14.9184 29.0621 14.8369 29.0517 14.7577 29.0306L14.4408 28.9458C13.9706 28.7419 13.6397 28.2881 13.6027 27.7524L0.9375 24.3746V23.4811L14.88 27.1721C14.9194 27.1824 14.9597 27.1875 15 27.1875C15.0403 27.1875 15.0806 27.1824 15.12 27.1721L29.0625 23.4811V24.3746L16.3964 27.7524ZM15.4688 24.2499V4.56236L29.0625 0.937519V20.625L15.4688 24.2499Z" fill="white"/>
</g>
<defs>
<clipPath id="clip0_748_1149">
<rect width="30" height="30" fill="white"/>
</clipPath>
</defs>
</svg>
