<svg width="91" height="12" viewBox="0 0 91 12" fill="none" xmlns="http://www.w3.org/2000/svg">
<rect width="91" height="12" fill="#B1AEAE"/>
<g id="tnayin ashxatanq" clip-path="url(#clip0_0_1)">
<rect width="1920" height="2880" transform="translate(-825 -1198)" fill="#010526"/>
<g id="Group 1000002576">
<path id="Line 105" d="M90.5303 6.53033C90.8232 6.23744 90.8232 5.76256 90.5303 5.46967L85.7574 0.696699C85.4645 0.403806 84.9896 0.403806 84.6967 0.696699C84.4038 0.989593 84.4038 1.46447 84.6967 1.75736L88.9393 6L84.6967 10.2426C84.4038 10.5355 84.4038 11.0104 84.6967 11.3033C84.9896 11.5962 85.4645 11.5962 85.7574 11.3033L90.5303 6.53033ZM0 6.75L90 6.75V5.25L0 5.25L0 6.75Z" fill="white"/>
</g>
</g>
<defs>
<clipPath id="clip0_0_1">
<rect width="1920" height="2880" fill="white" transform="translate(-825 -1198)"/>
</clipPath>
</defs>
</svg>
