<svg width="82" height="65" viewBox="0 0 82 65" fill="none" xmlns="http://www.w3.org/2000/svg">
<path d="M2.98486 0L14.6676 9.41734L2.98486 19.1477V0Z" fill="#CA2A27"/>
<path d="M15.6274 10.1953L27.6367 19.8786L15.6274 29.8035V10.1953Z" fill="#E47825"/>
<path d="M15.2113 9.86572L3.27393 19.8514L15.2113 29.4678V9.86572Z" fill="#DC3829"/>
<path d="M40.7617 10.2593L28.9082 20.1751L40.7617 29.9146V10.2593Z" fill="#42AA48"/>
<path d="M28.0067 20.1323L16.0454 30.1393L28.0067 39.7891V20.1323Z" fill="#F6C315"/>
<path d="M28.4111 20.5034L40.2646 30.0499L28.4111 39.7894V20.5034Z" fill="#85C341"/>
<path d="M79.0153 0L67.3311 9.41734L79.0153 19.1477V0Z" fill="#2A3578"/>
<path d="M66.3711 10.1953L54.3618 19.8786L66.3711 29.8035V10.1953Z" fill="#2691D0"/>
<path d="M66.7871 9.86572L78.726 19.8514L66.7871 29.4678V9.86572Z" fill="#2C579B"/>
<path d="M41.2368 10.2593L53.0903 20.1751L41.2368 29.9146V10.2593Z" fill="#67A743"/>
<path d="M53.9917 20.1323L65.9545 30.1393L53.9917 39.7891V20.1323Z" fill="#85C341"/>
<path d="M53.5874 20.5034L41.7339 30.0499L53.5874 39.7894V20.5034Z" fill="#478C40"/>
<path d="M3.59659 60.7471L0.3125 49.1107H2.57955L4.67614 57.6618H4.78409L7.02273 49.1107H9.08523L11.3295 57.6675H11.4318L13.5284 49.1107H15.7955L12.5114 60.7471H10.4318L8.10227 52.5823H8.01136L5.67614 60.7471H3.59659ZM20.1392 60.9175C19.2642 60.9175 18.5085 60.7357 17.8722 60.3721C17.2396 60.0046 16.7528 59.4857 16.4119 58.8153C16.071 58.141 15.9006 57.3474 15.9006 56.4346C15.9006 55.5368 16.071 54.749 16.4119 54.0709C16.7566 53.3891 17.2377 52.8588 17.8551 52.48C18.4725 52.0974 19.1979 51.9062 20.0312 51.9062C20.5691 51.9062 21.0767 51.9933 21.554 52.1675C22.035 52.338 22.4593 52.6031 22.8267 52.963C23.1979 53.3228 23.4896 53.7812 23.7017 54.338C23.9138 54.891 24.0199 55.5501 24.0199 56.3153V56.9459H16.8665V55.5596H22.0483C22.0445 55.1656 21.9593 54.8153 21.7926 54.5084C21.6259 54.1978 21.393 53.9535 21.0938 53.7755C20.7983 53.5974 20.4536 53.5084 20.0597 53.5084C19.6392 53.5084 19.2699 53.6107 18.9517 53.8153C18.6335 54.016 18.3854 54.2812 18.2074 54.6107C18.0331 54.9365 17.9441 55.2944 17.9403 55.6846V56.8948C17.9403 57.4024 18.0331 57.838 18.2188 58.2016C18.4044 58.5615 18.6638 58.838 18.9972 59.0312C19.3305 59.2206 19.7206 59.3153 20.1676 59.3153C20.4669 59.3153 20.7377 59.2736 20.9801 59.1903C21.2225 59.1031 21.4328 58.9762 21.6108 58.8096C21.7888 58.6429 21.9233 58.4365 22.0142 58.1903L23.9347 58.4062C23.8134 58.9137 23.5824 59.3569 23.2415 59.7357C22.9044 60.1107 22.4725 60.4024 21.946 60.6107C21.4195 60.8153 20.8172 60.9175 20.1392 60.9175ZM25.8509 60.7471V49.1107H27.9077V53.463H27.9929C28.099 53.2509 28.2486 53.0255 28.4418 52.7868C28.6349 52.5444 28.8963 52.338 29.2259 52.1675C29.5554 51.9933 29.9759 51.9062 30.4872 51.9062C31.1615 51.9062 31.7694 52.0785 32.3111 52.4232C32.8565 52.7641 33.2884 53.2698 33.6065 53.9403C33.9285 54.6069 34.0895 55.4251 34.0895 56.3948C34.0895 57.3531 33.9323 58.1675 33.6179 58.838C33.3035 59.5084 32.8755 60.0198 32.3338 60.3721C31.7921 60.7243 31.1785 60.9005 30.4929 60.9005C29.9929 60.9005 29.5781 60.8171 29.2486 60.6505C28.919 60.4838 28.6539 60.2831 28.4531 60.0482C28.2562 59.8096 28.1027 59.5842 27.9929 59.3721H27.8736V60.7471H25.8509ZM27.8679 56.3834C27.8679 56.9478 27.9474 57.4421 28.1065 57.8664C28.2694 58.2906 28.5024 58.6221 28.8054 58.8607C29.1122 59.0956 29.4834 59.213 29.919 59.213C30.3736 59.213 30.7543 59.0918 31.0611 58.8493C31.3679 58.6031 31.599 58.2679 31.7543 57.8437C31.9134 57.4156 31.9929 56.9289 31.9929 56.3834C31.9929 55.8418 31.9152 55.3607 31.7599 54.9403C31.6046 54.5198 31.3736 54.1903 31.0668 53.9516C30.7599 53.713 30.3774 53.5937 29.919 53.5937C29.4796 53.5937 29.1065 53.7092 28.7997 53.9403C28.4929 54.1713 28.2599 54.4952 28.1009 54.9118C27.9455 55.3285 27.8679 55.819 27.8679 56.3834ZM35.929 60.7471V49.1107H43.4972V50.8778H38.0369V54.0368H43.1051V55.8039H38.0369V58.98H43.5426V60.7471H35.929ZM47.2386 52.0198L49 55.2414L50.7898 52.0198H52.9659L50.3352 56.3834L53.0114 60.7471H50.8466L49 57.605L47.1705 60.7471H44.9886L47.6477 56.3834L45.0568 52.0198H47.2386ZM55.8239 60.8721C55.4792 60.8721 55.1837 60.7509 54.9375 60.5084C54.6913 60.266 54.5701 59.9706 54.5739 59.6221C54.5701 59.2812 54.6913 58.9895 54.9375 58.7471C55.1837 58.5046 55.4792 58.3834 55.8239 58.3834C56.1572 58.3834 56.447 58.5046 56.6932 58.7471C56.9432 58.9895 57.0701 59.2812 57.0739 59.6221C57.0701 59.8531 57.0095 60.0634 56.892 60.2528C56.7784 60.4421 56.6269 60.5937 56.4375 60.7073C56.2519 60.8171 56.0473 60.8721 55.8239 60.8721ZM61.7088 60.9232C61.1558 60.9232 60.6577 60.8247 60.2145 60.6278C59.7751 60.427 59.4266 60.1315 59.169 59.7414C58.9152 59.3512 58.7884 58.8702 58.7884 58.2982C58.7884 57.8058 58.8793 57.3986 59.0611 57.0766C59.2429 56.7546 59.491 56.4971 59.8054 56.3039C60.1198 56.1107 60.474 55.9649 60.8679 55.8664C61.2656 55.7641 61.6766 55.6903 62.1009 55.6448C62.6122 55.5918 63.027 55.5444 63.3452 55.5028C63.6634 55.4573 63.8944 55.3891 64.0384 55.2982C64.1861 55.2035 64.2599 55.0577 64.2599 54.8607V54.8266C64.2599 54.3986 64.133 54.0671 63.8793 53.8323C63.6255 53.5974 63.2599 53.48 62.7827 53.48C62.2789 53.48 61.8793 53.5899 61.5838 53.8096C61.2921 54.0293 61.0952 54.2887 60.9929 54.588L59.0724 54.3153C59.224 53.7849 59.474 53.3418 59.8224 52.9857C60.1709 52.6259 60.5971 52.3569 61.1009 52.1789C61.6046 51.9971 62.1615 51.9062 62.7713 51.9062C63.1918 51.9062 63.6103 51.9554 64.027 52.0539C64.4437 52.1524 64.8243 52.3153 65.169 52.5425C65.5137 52.766 65.7902 53.0709 65.9986 53.4573C66.2107 53.8437 66.3168 54.3266 66.3168 54.9062V60.7471H64.3395V59.5482H64.2713C64.1463 59.7906 63.9702 60.0179 63.7429 60.23C63.5194 60.4384 63.2372 60.6069 62.8963 60.7357C62.5592 60.8607 62.1634 60.9232 61.7088 60.9232ZM62.2429 59.4118C62.6558 59.4118 63.0137 59.3304 63.3168 59.1675C63.6198 59.0009 63.8527 58.7812 64.0156 58.5084C64.1823 58.2357 64.2656 57.9384 64.2656 57.6164V56.588C64.2012 56.641 64.0914 56.6903 63.9361 56.7357C63.7846 56.7812 63.6141 56.8209 63.4247 56.855C63.2353 56.8891 63.0478 56.9194 62.8622 56.9459C62.6766 56.9724 62.5156 56.9952 62.3793 57.0141C62.0724 57.0558 61.7978 57.124 61.5554 57.2187C61.313 57.3134 61.1217 57.4459 60.9815 57.6164C60.8414 57.7831 60.7713 57.999 60.7713 58.2641C60.7713 58.6429 60.9096 58.9289 61.1861 59.1221C61.4626 59.3153 61.8149 59.4118 62.2429 59.4118ZM68.3849 60.7471V52.0198H70.3509V53.5028H70.4531C70.6349 53.0028 70.9361 52.6126 71.3565 52.3323C71.777 52.0482 72.2789 51.9062 72.8622 51.9062C73.4531 51.9062 73.9512 52.0501 74.3565 52.338C74.7656 52.6221 75.0535 53.0103 75.2202 53.5028H75.3111C75.5043 53.0179 75.83 52.6315 76.2884 52.3437C76.7505 52.052 77.2978 51.9062 77.9304 51.9062C78.7334 51.9062 79.3887 52.1599 79.8963 52.6675C80.4039 53.1751 80.6577 53.9156 80.6577 54.8891V60.7471H78.5952V55.2073C78.5952 54.6656 78.4512 54.2698 78.1634 54.0198C77.8755 53.766 77.5232 53.6391 77.1065 53.6391C76.6103 53.6391 76.2221 53.7944 75.9418 54.105C75.6652 54.4118 75.527 54.8115 75.527 55.3039V60.7471H73.5099V55.1221C73.5099 54.6713 73.3736 54.3115 73.1009 54.0425C72.8319 53.7736 72.4796 53.6391 72.044 53.6391C71.7486 53.6391 71.4796 53.7149 71.2372 53.8664C70.9948 54.0141 70.8016 54.2243 70.6577 54.4971C70.5137 54.766 70.4418 55.0804 70.4418 55.4403V60.7471H68.3849Z" fill="white"/>
</svg>
