<svg width="30" height="30" viewBox="0 0 30 30" fill="none" xmlns="http://www.w3.org/2000/svg">
<path d="M12.5 10V7.5C12.5 6.83696 12.7634 6.20108 13.2323 5.73224C13.7011 5.26339 14.337 5 15 5H23.75C24.413 5 25.0489 5.26339 25.5177 5.73224C25.9866 6.20108 26.25 6.83696 26.25 7.5V22.5C26.25 23.163 25.9866 23.7989 25.5177 24.2677C25.0489 24.7366 24.413 25 23.75 25H15C14.337 25 13.7011 24.7366 13.2323 24.2677C12.7634 23.7989 12.5 23.163 12.5 22.5V20" stroke="white" stroke-width="2" stroke-linecap="round" stroke-linejoin="round"/>
<path d="M18.75 15H3.75M3.75 15L7.5 11.25M3.75 15L7.5 18.75" stroke="white" stroke-width="2" stroke-linecap="round" stroke-linejoin="round"/>
</svg>
