<svg width="30" height="30" viewBox="0 0 30 30" fill="none" xmlns="http://www.w3.org/2000/svg">
<path d="M24.0485 6.27588C25.8766 6.27588 27.3715 7.70301 27.4797 9.50398L27.486 9.71338V20.3447C27.486 22.1729 26.0588 23.6677 24.2579 23.776L24.0485 23.7822H5.95117C4.12301 23.7822 2.62817 22.3551 2.51995 20.5541L2.51367 20.3447V9.71338C2.51367 7.88521 3.9408 6.39037 5.74177 6.28215L5.95117 6.27588H24.0485ZM25.6099 13.7434H4.38742L4.38867 20.3447C4.38867 21.1537 5.00352 21.8191 5.79142 21.8992L5.95117 21.9072H24.0485C24.8575 21.9072 25.5229 21.2924 25.6029 20.5045L25.611 20.3447L25.6099 13.7434ZM22.816 18.125C23.3338 18.125 23.7535 18.5447 23.7535 19.0625C23.7535 19.5371 23.4008 19.9294 22.9432 19.9914L22.816 20H19.691C19.1732 20 18.7535 19.5803 18.7535 19.0625C18.7535 18.5879 19.1062 18.1956 19.5638 18.1336L19.691 18.125H22.816ZM24.0485 8.15088H5.95117C5.14216 8.15088 4.47675 8.76572 4.39674 9.55362L4.38867 9.71338L4.38742 11.8684H25.6099L25.611 9.71338C25.611 8.90437 24.9961 8.23896 24.2082 8.15895L24.0485 8.15088Z" fill="white"/>
</svg>
