<?xml version="1.0" encoding="utf-8"?><svg xmlns="http://www.w3.org/2000/svg" xmlns:xlink="http://www.w3.org/1999/xlink" width="200px" height="200px" viewBox="0 0 100 100" preserveAspectRatio="xMidYMid" style="margin-right:-1.6px;display:block;animation-play-state:paused" ><g transform="rotate(0 50 50)" style="transform:matrix(1, 0, 0, 1, 0, 0);animation-play-state:paused" ><rect x="49.5" y="20" rx="0.5" ry="8.6" width="1" height="20" fill="#718cfe" opacity="0.0285715" style="opacity:0.0285715;animation-play-state:paused" ></rect></g>
<g transform="rotate(10.285714285714286 50 50)" style="transform:matrix(0.98393, 0.178557, -0.178557, 0.98393, 9.73137, -8.12432);animation-play-state:paused" ><rect x="49.5" y="20" rx="0.5" ry="8.6" width="1" height="20" fill="#718cfe" opacity="0.057143" style="opacity:0.057143;animation-play-state:paused" ></rect></g>
<g transform="rotate(20.571428571428573 50 50)" style="transform:matrix(0.936235, 0.351375, -0.351375, 0.936235, 20.757, -14.3805);animation-play-state:paused" ><rect x="49.5" y="20" rx="0.5" ry="8.6" width="1" height="20" fill="#718cfe" opacity="0.0857145" style="opacity:0.0857145;animation-play-state:paused" ></rect></g>
<g transform="rotate(30.857142857142858 50 50)" style="transform:matrix(0.858449, 0.512899, -0.512899, 0.858449, 32.7225, -18.5674);animation-play-state:paused" ><rect x="49.5" y="20" rx="0.5" ry="8.6" width="1" height="20" fill="#718cfe" opacity="0.114286" style="opacity:0.114286;animation-play-state:paused" ></rect></g>
<g transform="rotate(41.142857142857146 50 50)" style="transform:matrix(0.753071, 0.657939, -0.657939, 0.753071, 45.2434, -20.5505);animation-play-state:paused" ><rect x="49.5" y="20" rx="0.5" ry="8.6" width="1" height="20" fill="#718cfe" opacity="0.142858" style="opacity:0.142858;animation-play-state:paused" ></rect></g>
<g transform="rotate(51.42857142857143 50 50)" style="transform:matrix(0.62349, 0.781831, -0.781831, 0.62349, 57.9171, -20.2661);animation-play-state:paused" ><rect x="49.5" y="20" rx="0.5" ry="8.6" width="1" height="20" fill="#718cfe" opacity="0.171429" style="opacity:0.171429;animation-play-state:paused" ></rect></g>
<g transform="rotate(61.714285714285715 50 50)" style="transform:matrix(0.473869, 0.880596, -0.880596, 0.473869, 70.3363, -17.7232);animation-play-state:paused" ><rect x="49.5" y="20" rx="0.5" ry="8.6" width="1" height="20" fill="#718cfe" opacity="0.200001" style="opacity:0.200001;animation-play-state:paused" ></rect></g>
<g transform="rotate(72 50 50)" style="transform:matrix(0.309017, 0.951057, -0.951057, 0.309017, 82.102, -13.0037);animation-play-state:paused" ><rect x="49.5" y="20" rx="0.5" ry="8.6" width="1" height="20" fill="#718cfe" opacity="0.228572" style="opacity:0.228572;animation-play-state:paused" ></rect></g>
<g transform="rotate(82.28571428571429 50 50)" style="transform:matrix(0.134233, 0.99095, -0.99095, 0.134233, 92.8358, -6.25915);animation-play-state:paused" ><rect x="49.5" y="20" rx="0.5" ry="8.6" width="1" height="20" fill="#718cfe" opacity="0.257142" style="opacity:0.257142;animation-play-state:paused" ></rect></g>
<g transform="rotate(92.57142857142857 50 50)" style="transform:matrix(-0.0448648, 0.998993, -0.998993, -0.0448648, 102.193, 2.29359);animation-play-state:paused" ><rect x="49.5" y="20" rx="0.5" ry="8.6" width="1" height="20" fill="#718cfe" opacity="0.285714" style="opacity:0.285714;animation-play-state:paused" ></rect></g>
<g transform="rotate(102.85714285714286 50 50)" style="transform:matrix(-0.222521, 0.974928, -0.974928, -0.222521, 109.872, 12.3796);animation-play-state:paused" ><rect x="49.5" y="20" rx="0.5" ry="8.6" width="1" height="20" fill="#718cfe" opacity="0.314285" style="opacity:0.314285;animation-play-state:paused" ></rect></g>
<g transform="rotate(113.14285714285714 50 50)" style="transform:matrix(-0.393025, 0.919528, -0.919528, -0.393025, 115.628, 23.6749);animation-play-state:paused" ><rect x="49.5" y="20" rx="0.5" ry="8.6" width="1" height="20" fill="#718cfe" opacity="0.342857" style="opacity:0.342857;animation-play-state:paused" ></rect></g>
<g transform="rotate(123.42857142857143 50 50)" style="transform:matrix(-0.550897, 0.834573, -0.834573, -0.550897, 119.274, 35.8162);animation-play-state:paused" ><rect x="49.5" y="20" rx="0.5" ry="8.6" width="1" height="20" fill="#718cfe" opacity="0.371428" style="opacity:0.371428;animation-play-state:paused" ></rect></g>
<g transform="rotate(133.71428571428572 50 50)" style="transform:matrix(-0.691063, 0.722795, -0.722795, -0.691063, 120.693, 48.4134);animation-play-state:paused" ><rect x="49.5" y="20" rx="0.5" ry="8.6" width="1" height="20" fill="#718cfe" opacity="0.4" style="opacity:0.4;animation-play-state:paused" ></rect></g>
<g transform="rotate(144 50 50)" style="transform:matrix(-0.809017, 0.587785, -0.587785, -0.809017, 119.84, 61.0616);animation-play-state:paused" ><rect x="49.5" y="20" rx="0.5" ry="8.6" width="1" height="20" fill="#718cfe" opacity="0.428571" style="opacity:0.428571;animation-play-state:paused" ></rect></g>
<g transform="rotate(154.28571428571428 50 50)" style="transform:matrix(-0.900969, 0.433884, -0.433884, -0.900969, 116.743, 73.3543);animation-play-state:paused" ><rect x="49.5" y="20" rx="0.5" ry="8.6" width="1" height="20" fill="#718cfe" opacity="0.457143" style="opacity:0.457143;animation-play-state:paused" ></rect></g>
<g transform="rotate(164.57142857142858 50 50)" style="transform:matrix(-0.963963, 0.266037, -0.266037, -0.963963, 111.5, 84.8963);animation-play-state:paused" ><rect x="49.5" y="20" rx="0.5" ry="8.6" width="1" height="20" fill="#718cfe" opacity="0.485714" style="opacity:0.485714;animation-play-state:paused" ></rect></g>
<g transform="rotate(174.85714285714286 50 50)" style="transform:matrix(-0.995974, 0.0896392, -0.0896392, -0.995974, 104.281, 95.3168);animation-play-state:paused" ><rect x="49.5" y="20" rx="0.5" ry="8.6" width="1" height="20" fill="#718cfe" opacity="0.514286" style="opacity:0.514286;animation-play-state:paused" ></rect></g>
<g transform="rotate(185.14285714285714 50 50)" style="transform:matrix(-0.995974, -0.0896392, 0.0896392, -0.995974, 95.3168, 104.281);animation-play-state:paused" ><rect x="49.5" y="20" rx="0.5" ry="8.6" width="1" height="20" fill="#718cfe" opacity="0.542857" style="opacity:0.542857;animation-play-state:paused" ></rect></g>
<g transform="rotate(195.42857142857142 50 50)" style="transform:matrix(-0.963963, -0.266037, 0.266037, -0.963963, 84.8963, 111.5);animation-play-state:paused" ><rect x="49.5" y="20" rx="0.5" ry="8.6" width="1" height="20" fill="#718cfe" opacity="0.571429" style="opacity:0.571429;animation-play-state:paused" ></rect></g>
<g transform="rotate(205.71428571428572 50 50)" style="transform:matrix(-0.900969, -0.433884, 0.433884, -0.900969, 73.3543, 116.743);animation-play-state:paused" ><rect x="49.5" y="20" rx="0.5" ry="8.6" width="1" height="20" fill="#718cfe" opacity="0.6" style="opacity:0.6;animation-play-state:paused" ></rect></g>
<g transform="rotate(216 50 50)" style="transform:matrix(-0.809017, -0.587785, 0.587785, -0.809017, 61.0616, 119.84);animation-play-state:paused" ><rect x="49.5" y="20" rx="0.5" ry="8.6" width="1" height="20" fill="#718cfe" opacity="0.628572" style="opacity:0.628572;animation-play-state:paused" ></rect></g>
<g transform="rotate(226.28571428571428 50 50)" style="transform:matrix(-0.691063, -0.722795, 0.722795, -0.691063, 48.4134, 120.693);animation-play-state:paused" ><rect x="49.5" y="20" rx="0.5" ry="8.6" width="1" height="20" fill="#718cfe" opacity="0.657143" style="opacity:0.657143;animation-play-state:paused" ></rect></g>
<g transform="rotate(236.57142857142858 50 50)" style="transform:matrix(-0.550897, -0.834573, 0.834573, -0.550897, 35.8162, 119.274);animation-play-state:paused" ><rect x="49.5" y="20" rx="0.5" ry="8.6" width="1" height="20" fill="#718cfe" opacity="0.685715" style="opacity:0.685715;animation-play-state:paused" ></rect></g>
<g transform="rotate(246.85714285714286 50 50)" style="transform:matrix(-0.393025, -0.919528, 0.919528, -0.393025, 23.6749, 115.628);animation-play-state:paused" ><rect x="49.5" y="20" rx="0.5" ry="8.6" width="1" height="20" fill="#718cfe" opacity="0.714286" style="opacity:0.714286;animation-play-state:paused" ></rect></g>
<g transform="rotate(257.14285714285717 50 50)" style="transform:matrix(-0.222521, -0.974928, 0.974928, -0.222521, 12.3797, 109.872);animation-play-state:paused" ><rect x="49.5" y="20" rx="0.5" ry="8.6" width="1" height="20" fill="#718cfe" opacity="0.742858" style="opacity:0.742858;animation-play-state:paused" ></rect></g>
<g transform="rotate(267.42857142857144 50 50)" style="transform:matrix(-0.0448651, -0.998993, 0.998993, -0.0448651, 2.2936, 102.193);animation-play-state:paused" ><rect x="49.5" y="20" rx="0.5" ry="8.6" width="1" height="20" fill="#718cfe" opacity="0.771429" style="opacity:0.771429;animation-play-state:paused" ></rect></g>
<g transform="rotate(277.7142857142857 50 50)" style="transform:matrix(0.134233, -0.99095, 0.99095, 0.134233, -6.25916, 92.8358);animation-play-state:paused" ><rect x="49.5" y="20" rx="0.5" ry="8.6" width="1" height="20" fill="#718cfe" opacity="0.800001" style="opacity:0.800001;animation-play-state:paused" ></rect></g>
<g transform="rotate(288 50 50)" style="transform:matrix(0.309017, -0.951057, 0.951057, 0.309017, -13.0037, 82.102);animation-play-state:paused" ><rect x="49.5" y="20" rx="0.5" ry="8.6" width="1" height="20" fill="#718cfe" opacity="0.828572" style="opacity:0.828572;animation-play-state:paused" ></rect></g>
<g transform="rotate(298.2857142857143 50 50)" style="transform:matrix(0.473869, -0.880596, 0.880596, 0.473869, -17.7232, 70.3364);animation-play-state:paused" ><rect x="49.5" y="20" rx="0.5" ry="8.6" width="1" height="20" fill="#718cfe" opacity="0.857144" style="opacity:0.857144;animation-play-state:paused" ></rect></g>
<g transform="rotate(308.57142857142856 50 50)" style="transform:matrix(0.62349, -0.781831, 0.781831, 0.62349, -20.2661, 57.9171);animation-play-state:paused" ><rect x="49.5" y="20" rx="0.5" ry="8.6" width="1" height="20" fill="#718cfe" opacity="0.885715" style="opacity:0.885715;animation-play-state:paused" ></rect></g>
<g transform="rotate(318.85714285714283 50 50)" style="transform:matrix(0.753072, -0.657939, 0.657939, 0.753072, -20.5505, 45.2434);animation-play-state:paused" ><rect x="49.5" y="20" rx="0.5" ry="8.6" width="1" height="20" fill="#718cfe" opacity="0.914287" style="opacity:0.914287;animation-play-state:paused" ></rect></g>
<g transform="rotate(329.14285714285717 50 50)" style="transform:matrix(0.858449, -0.512899, 0.512899, 0.858449, -18.5674, 32.7225);animation-play-state:paused" ><rect x="49.5" y="20" rx="0.5" ry="8.6" width="1" height="20" fill="#718cfe" opacity="0.942858" style="opacity:0.942858;animation-play-state:paused" ></rect></g>
<g transform="rotate(339.42857142857144 50 50)" style="transform:matrix(0.936235, -0.351375, 0.351375, 0.936235, -14.3805, 20.757);animation-play-state:paused" ><rect x="49.5" y="20" rx="0.5" ry="8.6" width="1" height="20" fill="#718cfe" opacity="0.97143" style="opacity:0.97143;animation-play-state:paused" ></rect></g>
<g transform="rotate(349.7142857142857 50 50)" style="transform:matrix(0.98393, -0.178557, 0.178557, 0.98393, -8.12432, 9.73136);animation-play-state:paused" ><rect x="49.5" y="20" rx="0.5" ry="8.6" width="1" height="20" fill="#718cfe" opacity="1" style="animation-play-state:paused" ></rect></g><!-- generated by https://loading.io/ --></svg>