<svg width="24" height="30" viewBox="0 0 24 30" fill="none" xmlns="http://www.w3.org/2000/svg">
<path d="M3 7.03125C3 6.65829 3.11155 6.3006 3.31012 6.03688C3.50869 5.77316 3.77801 5.625 4.05882 5.625H14.6471C14.9279 5.625 15.1972 5.77316 15.3958 6.03688C15.5943 6.3006 15.7059 6.65829 15.7059 7.03125C15.7059 7.40421 15.5943 7.7619 15.3958 8.02562C15.1972 8.28934 14.9279 8.4375 14.6471 8.4375H4.05882C3.77801 8.4375 3.50869 8.28934 3.31012 8.02562C3.11155 7.7619 3 7.40421 3 7.03125ZM3 22.0312C3 21.6583 3.11155 21.3006 3.31012 21.0369C3.50869 20.7732 3.77801 20.625 4.05882 20.625H13.2353C13.5161 20.625 13.7854 20.7732 13.984 21.0369C14.1826 21.3006 14.2941 21.6583 14.2941 22.0312C14.2941 22.4042 14.1826 22.7619 13.984 23.0256C13.7854 23.2893 13.5161 23.4375 13.2353 23.4375H4.05882C3.77801 23.4375 3.50869 23.2893 3.31012 23.0256C3.11155 22.7619 3 22.4042 3 22.0312ZM4.05882 13.125C3.77801 13.125 3.50869 13.2732 3.31012 13.5369C3.11155 13.8006 3 14.1583 3 14.5312C3 14.9042 3.11155 15.2619 3.31012 15.5256C3.50869 15.7893 3.77801 15.9375 4.05882 15.9375H18.8824C19.1632 15.9375 19.4325 15.7893 19.6311 15.5256C19.8296 15.2619 19.9412 14.9042 19.9412 14.5312C19.9412 14.1583 19.8296 13.8006 19.6311 13.5369C19.4325 13.2732 19.1632 13.125 18.8824 13.125H4.05882Z" fill="#A7A7A7"/>
</svg>
