<svg width="19" height="14" viewBox="0 0 19 14" fill="none" xmlns="http://www.w3.org/2000/svg">
<path d="M9.78606 7.33293L1.09606 13.8446C0.972512 13.9308 0.8091 13.9778 0.640252 13.9756C0.471405 13.9733 0.310305 13.9221 0.190893 13.8326C0.0714812 13.7431 0.00308066 13.6224 0.00010154 13.4959C-0.00287758 13.3694 0.0597972 13.2469 0.174922 13.1543L8.40326 6.98782L0.174922 0.821306C0.0597972 0.728727 -0.00287758 0.606278 0.00010154 0.479757C0.00308066 0.353235 0.0714812 0.232519 0.190893 0.143041C0.310305 0.0535626 0.471405 0.00230841 0.640252 7.60867e-05C0.8091 -0.00215624 0.972512 0.0448075 1.09606 0.131074L9.78606 6.6427C9.90811 6.73427 9.97667 6.8584 9.97667 6.98782C9.97667 7.11724 9.90811 7.24136 9.78606 7.33293ZM18.4761 6.6427L9.78606 0.131074C9.66251 0.0448075 9.4991 -0.00215624 9.33025 7.60867e-05C9.1614 0.00230841 9.0003 0.0535626 8.88089 0.143041C8.76148 0.232519 8.69308 0.353235 8.6901 0.479757C8.68712 0.606278 8.74979 0.728727 8.86492 0.821306L17.0933 6.98782L8.86492 13.1543C8.80089 13.199 8.74953 13.253 8.71391 13.3129C8.67828 13.3728 8.65913 13.4374 8.65759 13.503C8.65604 13.5686 8.67214 13.6337 8.70492 13.6945C8.7377 13.7553 8.78649 13.8106 8.84838 13.857C8.91027 13.9033 8.98399 13.9399 9.06514 13.9645C9.1463 13.989 9.23322 14.0011 9.32073 13.9999C9.40824 13.9988 9.49455 13.9844 9.57449 13.9577C9.65444 13.931 9.72639 13.8925 9.78606 13.8446L18.4761 7.33293C18.5981 7.24136 18.6667 7.11724 18.6667 6.98782C18.6667 6.8584 18.5981 6.73427 18.4761 6.6427Z" fill="#A7A7A7"/>
</svg>
